<svg width="86" height="69" viewBox="0 0 86 69" fill="none" xmlns="http://www.w3.org/2000/svg">
<path d="M85.1547 53.2978C81.4946 19.5165 70.7235 4.38447 65.2297 0.275879C63.8399 1.66182 52.836 12.3571 52.836 12.3571C46.3453 11.0274 39.6516 11.0274 33.161 12.3571C33.161 12.3571 23.5461 3.04697 20.7664 0.275879C15.2977 4.36572 4.51254 19.3735 0.841442 53.2563C0.655504 55.0837 1.3891 56.8845 2.80082 58.0642C8.09847 62.5056 14.1305 65.9938 20.6282 68.372C21.975 68.8813 23.4891 68.2798 24.1157 66.9868L27.7141 59.8517V59.436C37.7594 61.8509 48.2368 61.8509 58.2828 59.436V59.8517L61.8813 67.0282C62.5078 68.322 64.0219 68.9228 65.3688 68.4134C71.8633 66.0478 77.8953 62.5743 83.1961 58.147C84.6203 56.9587 85.3555 55.1392 85.1547 53.2978ZM29.1032 45.9962C25.2664 45.9962 22.1555 42.2649 22.1555 37.6837C22.1555 37.5556 22.1664 37.4306 22.1719 37.304C26.8297 36.5626 31.8571 34.872 35.1618 33.6204C35.7258 34.822 36.0508 36.2063 36.0508 37.6837C36.0508 42.2782 32.9399 45.9962 29.1032 45.9962ZM56.893 45.9962C53.0563 45.9962 49.9453 42.2649 49.9453 37.6837C49.9453 36.1501 50.3 34.7157 50.9078 33.4806C54.0961 34.7024 59.1164 36.4274 63.8211 37.2329C63.8282 37.3829 63.8399 37.5313 63.8399 37.6829C63.8399 42.2782 60.7297 45.9962 56.893 45.9962Z" fill="url(#paint0_linear_338_4)"/>
<defs>
<linearGradient id="paint0_linear_338_4" x1="43" y1="68.5939" x2="43" y2="0.275879" gradientUnits="userSpaceOnUse">
<stop stop-color="#C0907D"/>
<stop offset="0.9999" stop-color="#AA3506"/>
<stop offset="1" stop-color="#DE9375"/>
</linearGradient>
</defs>
</svg>
