<svg width="100" height="100" viewBox="0 0 100 100" fill="none" xmlns="http://www.w3.org/2000/svg">
<path d="M92.1547 68.2978C88.4946 34.5165 77.7235 19.3845 72.2297 15.2759C70.8399 16.6618 59.836 27.3571 59.836 27.3571C53.3453 26.0274 46.6516 26.0274 40.161 27.3571C40.161 27.3571 30.5461 18.047 27.7664 15.2759C22.2977 19.3657 11.5125 34.3735 7.84144 68.2563C7.6555 70.0837 8.3891 71.8845 9.80082 73.0642C15.0985 77.5056 21.1305 80.9938 27.6282 83.372C28.975 83.8813 30.4891 83.2798 31.1157 81.9868L34.7141 74.8517V74.436C44.7594 76.8509 55.2368 76.8509 65.2828 74.436V74.8517L68.8813 82.0282C69.5078 83.322 71.0219 83.9228 72.3688 83.4134C78.8633 81.0478 84.8953 77.5743 90.1961 73.147C91.6203 71.9587 92.3555 70.1392 92.1547 68.2978ZM36.1032 60.9962C32.2664 60.9962 29.1555 57.2649 29.1555 52.6837C29.1555 52.5556 29.1664 52.4306 29.1719 52.304C33.8297 51.5626 38.8571 49.872 42.1618 48.6204C42.7258 49.822 43.0508 51.2063 43.0508 52.6837C43.0508 57.2782 39.9399 60.9962 36.1032 60.9962ZM63.893 60.9962C60.0563 60.9962 56.9453 57.2649 56.9453 52.6837C56.9453 51.1501 57.3 49.7157 57.9078 48.4806C61.0961 49.7024 66.1164 51.4274 70.8211 52.2329C70.8282 52.3829 70.8399 52.5313 70.8399 52.6829C70.8399 57.2782 67.7297 60.9962 63.893 60.9962Z" fill="url(#paint0_linear_338_2)"/>
<path d="M58.3594 65.8008C58.3594 68.8156 55.9055 71.2695 52.8906 71.2695C51.593 71.2695 50.35 70.8047 49.375 69.9851C48.4 70.8047 47.1578 71.2695 45.8594 71.2695C42.8438 71.2695 40.3906 68.8156 40.3906 65.8008C40.3906 65.1539 40.9148 64.6289 41.5625 64.6289C42.2102 64.6289 42.7344 65.1539 42.7344 65.8008C42.7344 67.5242 44.1359 68.9258 45.8594 68.9258C46.8734 68.9258 47.8297 68.4273 48.4164 67.5929C48.8555 66.9687 49.8945 66.9687 50.3344 67.5929C50.9211 68.4273 51.8766 68.9258 52.8906 68.9258C54.6141 68.9258 56.0156 67.5242 56.0156 65.8008C56.0156 65.1539 56.5406 64.6289 57.1875 64.6289C57.8344 64.6289 58.3594 65.1531 58.3594 65.8008ZM56.0156 43.3593C57.9539 43.3593 59.5312 41.782 59.5312 39.8437V37.1093C59.5312 36.4617 59.0063 35.9375 58.3594 35.9375C57.7125 35.9375 57.1875 36.4617 57.1875 37.1093V39.8437C57.1875 40.4898 56.6617 41.0156 56.0156 41.0156C55.3695 41.0156 54.8438 40.4898 54.8438 39.8437V37.1093C54.8438 36.4617 54.3188 35.9375 53.6719 35.9375C53.025 35.9375 52.5 36.4617 52.5 37.1093V39.8437C52.5 41.782 54.0773 43.3593 56.0156 43.3593ZM20.8594 54.6875C20.2117 54.6875 19.6875 55.2125 19.6875 55.8593V58.5937C19.6875 59.2398 19.1617 59.7656 18.5156 59.7656C17.8695 59.7656 17.3438 59.2398 17.3438 58.5937V55.8593C17.3438 55.2125 16.8195 54.6875 16.1719 54.6875C15.5242 54.6875 15 55.2125 15 55.8593V58.5937C15 60.532 16.5773 62.1093 18.5156 62.1093C20.4539 62.1093 22.0312 60.532 22.0312 58.5937V55.8593C22.0312 55.2125 21.507 54.6875 20.8594 54.6875ZM42.7344 40.2343C44.6727 40.2343 46.25 38.657 46.25 36.7187V35.5468C46.25 34.8992 45.7258 34.375 45.0781 34.375C44.4305 34.375 43.9062 34.8992 43.9062 35.5468V36.7187C43.9062 37.3648 43.3805 37.8906 42.7344 37.8906C42.0883 37.8906 41.5625 37.3648 41.5625 36.7187V35.5468C41.5625 34.8992 41.0383 34.375 40.3906 34.375C39.743 34.375 39.2188 34.8992 39.2188 35.5468V36.7187C39.2188 38.657 40.7961 40.2343 42.7344 40.2343ZM76.3281 65.625C75.6812 65.625 75.1562 66.15 75.1562 66.7968V67.9687C75.1562 68.6148 74.6305 69.1406 73.9844 69.1406C73.3383 69.1406 72.8125 68.6148 72.8125 67.9687V66.7968C72.8125 66.15 72.2875 65.625 71.6406 65.625C70.9937 65.625 70.4688 66.15 70.4688 66.7968V67.9687C70.4688 69.907 72.0461 71.4843 73.9844 71.4843C75.9227 71.4843 77.5 69.907 77.5 67.9687V66.7968C77.5 66.15 76.975 65.625 76.3281 65.625ZM33.3594 30.0781C33.8016 30.0781 34.2055 29.8297 34.4055 29.4343C34.6047 29.0398 34.5656 28.5672 34.3031 28.2109L28.8344 20.789C28.45 20.2679 27.7156 20.157 27.1961 20.5406C26.675 20.9242 26.5633 21.6578 26.9477 22.1789L31.0406 27.7336H27.1094C26.4617 27.7336 25.9375 28.2578 25.9375 28.9054C25.9375 29.5531 26.4617 30.0773 27.1094 30.0773L33.3594 30.0781ZM64.6094 30.0781H70.8594C71.5063 30.0781 72.0312 29.5539 72.0312 28.9062C72.0312 28.2586 71.5063 27.7343 70.8594 27.7343H66.9289L71.0219 22.1797C71.4055 21.6586 71.2945 20.925 70.7734 20.5414C70.2539 20.1586 69.5203 20.2672 69.1344 20.7898L63.6656 28.2117C63.4039 28.5679 63.3641 29.0406 63.5633 29.4351C63.7625 29.8297 64.168 30.0781 64.6094 30.0781ZM43.432 47.6117C43.1914 47.0109 42.5102 46.7187 41.9086 46.9593C35.918 49.3554 31.9227 50.0875 27.3219 50.7953C26.682 50.8937 26.2438 51.4922 26.3422 52.132C26.4305 52.7109 26.9305 53.125 27.4984 53.125C27.5578 53.125 27.618 53.1203 27.6781 53.1109C32.4289 52.3797 36.557 51.6234 42.7789 49.1343C43.3797 48.8945 43.6719 48.2125 43.432 47.6117ZM56.8414 46.9586C56.2414 46.7179 55.5586 47.0101 55.3188 47.6109C55.0781 48.2117 55.3703 48.8937 55.9719 49.1343C62.1938 51.6234 66.3219 52.3797 71.0719 53.1109C71.1328 53.1203 71.1922 53.125 71.2516 53.125C71.8203 53.125 72.3188 52.7109 72.4078 52.132C72.5063 51.4922 72.0672 50.8937 71.4281 50.7953C66.8281 50.0867 62.8328 49.3554 56.8414 46.9586Z" fill="url(#paint1_linear_338_2)"/>
<defs>
<linearGradient id="paint0_linear_338_2" x1="50" y1="83.5939" x2="50" y2="15.2759" gradientUnits="userSpaceOnUse">
<stop offset="0.02" stop-color="#FFE6B0"/>
<stop offset="0.49" stop-color="#D78125"/>
<stop offset="1" stop-color="#AA3506"/>
</linearGradient>
<linearGradient id="paint1_linear_338_2" x1="46.25" y1="20.3125" x2="46.25" y2="71.4843" gradientUnits="userSpaceOnUse">
<stop stop-color="#3C3C3C"/>
<stop offset="0.564" stop-color="#2D2D2D"/>
<stop offset="1" stop-color="#222222"/>
</linearGradient>
</defs>
</svg>
