<svg width="528" height="529" viewBox="0 0 528 529" fill="none" xmlns="http://www.w3.org/2000/svg">
<path fill-rule="evenodd" clip-rule="evenodd" d="M283 0L316 4L332.5 7.92857L333 8L333.769 8.23077L337 9L343 11L353 14L358 16L363 18V18.1429L369.375 20.875L370 21L373.167 22.5L379 25L383.722 27.5L389 30L396 34L403 38L408 41.3333L414 45L427 55L438 64L453 78V80H455L462 88L474 102L483 116L486 124L484 131L478 140L472 144L468 145H461L455 142L450 137L444 131V130.4L440 126L433 118L429 113L425 109L424 108L412 97L400 87L396.25 84.5L395 84L385 77L370 68L354 60L351 59L334 52L306 45L291 43L274 42H245L224 44L201 49L184 54L165 62L153 70L136 84L125 98L121 106L117 124L116 130V141L120 171L123 181L128.913 193.565L133.526 201.474L138.273 208L140 210.111L148 219L155.2 225L164 231.286L167 233L176.333 237.667L195 243L209 245L242 246H322L343 248L368 256L384 265L398 275L405 281L412 289L422 302L433 320L440 337L446 357L447 363L448 389L454 381L468 357L477 333L485 302L487 283V242L485 222L484 218L482 217L350 216L331 213L316 207L303 198L293 189L283 182L272 178L262 177H186L178 175L172 168L169 161V153L174 143L181 137L192 134H280L296 138L307 144L318 153L329 164L342 172L348 174L499 175L504 176H507L508 176.8L509 177L510.125 178.5L512 180L513.5 183L515 185L517 190L519 194L518.818 194.545L521 200L525 216L527 233L528 250V266L527 285H526.774L526 297L524.2 308.4L524 311L523.462 313.077L523 316L519 330.286L517 338L516.163 340.419L516 341L508 364L501.889 376.778L502 377L497 387L490.333 399L490 400L488.667 402L487 405L483.644 409.881L484 410L478.75 417L476 421L473 424.667L472 426L471.5 426.5L467 432L460.755 438.939L461 439L452.6 448L449 452L447 454L441 460L434.143 466L432 468L425 473.5L417 480L405 488L402 490L389 497L380 502H379.714L376 504L361 511L342 518L337.571 519.143L335 520L311 526L293 528L272 529H250L221 527L200 523L180 517L159 508L143 500L128 492L113 482L99 471L87 460L79 453L66 439L55 425L47 414L40 400V390L41.25 387.5L41 387L43 384L45 381L47 380L48 379L57 375L64 376L75 382L81.7222 386.889L82 387L87.3846 390.769L95 395L108 401L125 404L132 405L155 406H289L298 402L303 397L306 389V378L303.176 370.471L302 369L298.5 365L294.692 360.769L291 358L285.545 354.364L271 348L261 347L24 346L16 340L10 331L7 322L7.08108 321.757L6.21053 319H6L5.55556 316.926L4 312L3.3 306.4L3 305L2.57143 300.571L1 288L0 274V245L2 222H2.22581L3 214L7.14634 196.585L7 196L11 182H11.3L14 173L23 153L29 141L31 137L43 117L52 105L55.8571 100.286L56 100L58 97.6667L61 94L63 91.8333L68 86L73 81L82 72L90 65L106 52L123 40L143 28L171 15L200 6L222 2L239 0H283ZM346 380L347 383V373L344 361L337 347L330 337L321 328L312 321L302 315L290 310L268 306L251 305L77 303H44L43 299L41 278V234L43 213L47 196L52 183L57 171L64 157L71 147L76 142V168L82 194L89 210L91 211V213L96 222L106 236L114 245L126 256L136 264L155 275L175 283L190 286L218 288L318 289L331 291L347 295L364 304L375 312L389 327L396 339L400 348L406 369L407 388L406 402L404 411L399 429L392 441L380 453L368 462L353 470L331 479L301 486L280 488H241L222 486L222.067 486.267L201 481L191.769 477.308L193 477L185 474L158 461L153 459L140 451L139.331 448.992L296 448L300 447L316 440L330 431L337 423L343 413L347 400V386H346V380Z" fill="#AA3506"/>
</svg>
